<svg xmlns="http://www.w3.org/2000/svg" xmlns:xlink="http://www.w3.org/1999/xlink" version="1.1" width="256" height="256" viewBox="0 0 256 256" xml:space="preserve">

<defs>
</defs>
<g style="stroke: none; stroke-width: 0; stroke-dasharray: none; stroke-linecap: butt; stroke-linejoin: miter; stroke-miterlimit: 10; fill: none; fill-rule: nonzero; opacity: 1;" transform="translate(1.4065934065934016 1.4065934065934016) scale(2.81 2.81)" >
	<path d="M 82.065 28.465 c -0.023 -0.011 -0.047 -0.021 -0.071 -0.031 c -2.745 -1.051 -5.806 1.337 -10.038 4.643 c -3.8 2.969 -8.476 6.622 -14.334 8.867 c -0.005 -0.022 -0.014 -0.043 -0.02 -0.065 c -0.107 -0.43 -0.234 -0.851 -0.383 -1.264 c -0.035 -0.098 -0.07 -0.196 -0.107 -0.293 c -0.133 -0.343 -0.281 -0.678 -0.442 -1.006 c -0.06 -0.124 -0.116 -0.25 -0.18 -0.373 c -0.183 -0.346 -0.383 -0.681 -0.596 -1.008 c -0.11 -0.17 -0.228 -0.335 -0.347 -0.501 c -0.194 -0.27 -0.393 -0.537 -0.607 -0.791 c -0.041 -0.048 -0.073 -0.102 -0.115 -0.149 c 7.792 -9.731 10.115 -19.56 6.713 -28.484 c -1.912 -4.777 -7.477 -7.766 -14.885 -7.997 c -6.84 -0.219 -15.438 2.181 -18.201 8.011 c -1.052 2.748 1.337 5.806 4.643 10.037 c 2.964 3.794 6.612 8.463 8.858 14.312 c -0.022 0.005 -0.043 0.014 -0.065 0.02 c -0.428 0.106 -0.847 0.232 -1.257 0.379 c -0.107 0.038 -0.213 0.076 -0.318 0.117 c -0.331 0.128 -0.653 0.271 -0.97 0.425 c -0.137 0.066 -0.276 0.127 -0.411 0.198 c -0.319 0.169 -0.626 0.355 -0.928 0.549 c -0.214 0.137 -0.422 0.283 -0.629 0.433 c -0.247 0.18 -0.493 0.362 -0.727 0.558 c -0.051 0.043 -0.108 0.078 -0.158 0.121 C 26.768 27.399 16.947 25.08 8.03 28.48 c -4.777 1.912 -7.766 7.476 -7.997 14.884 c -0.213 6.837 2.181 15.438 8.011 18.201 c 2.746 1.057 5.806 -1.336 10.037 -4.643 c 3.792 -2.962 8.456 -6.606 14.298 -8.854 c 0.006 0.025 0.016 0.049 0.022 0.074 c 0.106 0.423 0.232 0.837 0.378 1.243 c 0.038 0.107 0.076 0.213 0.117 0.319 c 0.129 0.331 0.273 0.653 0.428 0.97 c 0.066 0.136 0.126 0.275 0.197 0.408 c 0.174 0.328 0.366 0.644 0.567 0.955 c 0.146 0.226 0.303 0.443 0.463 0.66 c 0.164 0.222 0.328 0.445 0.506 0.656 c 0.048 0.057 0.086 0.12 0.135 0.176 C 27.417 63.253 25.1 73.073 28.5 81.988 c 1.912 4.777 7.475 7.768 14.883 7.998 c 0.278 0.009 0.558 0.013 0.841 0.013 c 6.684 0 14.71 -2.431 17.361 -8.024 c 1.052 -2.748 -1.337 -5.806 -4.643 -10.037 c -2.966 -3.797 -6.616 -8.468 -8.861 -14.321 c 0.02 -0.005 0.039 -0.013 0.059 -0.018 c 0.429 -0.107 0.849 -0.235 1.26 -0.384 c 0.102 -0.036 0.203 -0.073 0.304 -0.112 c 0.334 -0.13 0.66 -0.276 0.98 -0.432 c 0.133 -0.064 0.268 -0.123 0.399 -0.192 c 0.327 -0.174 0.642 -0.365 0.951 -0.565 c 0.231 -0.148 0.453 -0.309 0.674 -0.473 c 0.217 -0.161 0.435 -0.321 0.642 -0.495 c 0.057 -0.048 0.12 -0.087 0.177 -0.136 c 9.73 7.79 19.557 10.111 28.481 6.711 c 4.776 -1.912 7.766 -7.477 7.996 -14.885 C 90.218 39.799 87.824 31.197 82.065 28.465 z M 55.997 45 c 0 3.409 -1.559 6.46 -4.001 8.479 c -0.008 0.007 -0.016 0.013 -0.025 0.019 c -0.245 0.202 -0.501 0.391 -0.763 0.571 c -0.056 0.038 -0.112 0.075 -0.169 0.112 c -0.212 0.14 -0.43 0.271 -0.652 0.397 c -0.091 0.051 -0.181 0.103 -0.273 0.151 c -0.178 0.094 -0.362 0.179 -0.547 0.264 c -0.134 0.061 -0.265 0.126 -0.401 0.181 c -0.06 0.025 -0.123 0.044 -0.184 0.068 c -0.762 0.293 -1.559 0.507 -2.387 0.628 c -0.001 0 -0.001 0.001 -0.002 0.001 c -0.522 0.076 -1.052 0.129 -1.594 0.129 c -3.408 0 -6.458 -1.558 -8.477 -3.999 c -0.008 -0.01 -0.016 -0.021 -0.024 -0.031 c -0.2 -0.244 -0.389 -0.498 -0.568 -0.759 c -0.038 -0.055 -0.074 -0.111 -0.11 -0.167 c -0.141 -0.214 -0.273 -0.433 -0.399 -0.657 c -0.05 -0.09 -0.101 -0.179 -0.149 -0.27 c -0.095 -0.18 -0.181 -0.366 -0.267 -0.553 c -0.06 -0.132 -0.124 -0.262 -0.179 -0.397 c -0.029 -0.07 -0.051 -0.143 -0.078 -0.214 c -0.288 -0.756 -0.5 -1.548 -0.619 -2.369 c 0 -0.001 -0.001 -0.001 -0.001 -0.002 c -0.075 -0.518 -0.127 -1.043 -0.127 -1.582 c 0 -3.407 1.558 -6.458 3.998 -8.476 c 0.013 -0.01 0.026 -0.02 0.038 -0.03 c 0.241 -0.198 0.492 -0.384 0.749 -0.56 c 0.062 -0.042 0.125 -0.082 0.187 -0.123 c 0.206 -0.136 0.418 -0.264 0.634 -0.386 c 0.097 -0.054 0.193 -0.109 0.292 -0.16 c 0.173 -0.091 0.351 -0.174 0.53 -0.256 c 0.139 -0.063 0.277 -0.13 0.419 -0.188 c 0.077 -0.032 0.158 -0.056 0.236 -0.086 c 0.752 -0.284 1.538 -0.492 2.354 -0.608 c 0.002 0 0.003 -0.001 0.004 -0.002 c 0.51 -0.073 1.027 -0.123 1.557 -0.123 c 3.403 0 6.45 1.555 8.469 3.99 c 0.021 0.026 0.041 0.053 0.062 0.079 c 0.185 0.228 0.361 0.463 0.528 0.705 c 0.049 0.072 0.096 0.145 0.144 0.218 c 0.128 0.195 0.248 0.394 0.363 0.597 c 0.06 0.107 0.121 0.214 0.177 0.323 c 0.083 0.159 0.159 0.323 0.235 0.487 c 0.07 0.152 0.143 0.302 0.205 0.458 c 0.018 0.044 0.032 0.089 0.049 0.133 c 0.301 0.777 0.519 1.591 0.64 2.436 c 0 0.002 0.002 0.003 0.002 0.005 C 55.946 43.945 55.997 44.466 55.997 45 z M 34.672 16.831 c -2.793 -3.575 -4.999 -6.398 -4.381 -8.02 c 1.98 -4.172 8.835 -7.025 16.302 -6.798 c 6.589 0.205 11.481 2.726 13.083 6.726 c 3.886 10.19 -1.107 19.814 -6.291 26.346 c -2.266 -1.919 -5.191 -3.083 -8.385 -3.083 c -0.354 0 -0.702 0.025 -1.049 0.053 C 41.612 25.749 37.784 20.814 34.672 16.831 z M 16.85 55.347 c -3.575 2.794 -6.402 4.995 -8.02 4.382 c -4.172 -1.979 -7.031 -8.835 -6.798 -16.302 c 0.205 -6.589 2.725 -11.482 6.726 -13.083 c 10.182 -3.881 19.798 1.1 26.324 6.274 c -1.918 2.265 -3.081 5.189 -3.081 8.383 c 0 0.363 0.025 0.72 0.055 1.075 C 25.758 48.414 20.829 52.237 16.85 55.347 z M 55.366 73.169 c 2.793 3.575 4.999 6.398 4.382 8.02 c -1.979 4.173 -8.847 7.029 -16.303 6.799 c -6.589 -0.205 -11.482 -2.726 -13.083 -6.727 c -3.883 -10.181 1.1 -19.798 6.275 -26.325 c 2.262 1.907 5.179 3.062 8.362 3.062 c 0.367 0 0.729 -0.025 1.089 -0.055 C 48.426 64.25 52.254 69.185 55.366 73.169 z M 88.006 46.573 c -0.205 6.589 -2.725 11.482 -6.726 13.084 c -10.187 3.887 -19.816 -1.109 -26.347 -6.292 c 1.908 -2.263 3.064 -5.18 3.064 -8.365 c 0 -0.358 -0.025 -0.71 -0.054 -1.061 c 6.315 -2.337 11.256 -6.169 15.244 -9.285 c 3.551 -2.774 6.357 -4.975 8.059 -4.364 C 85.396 32.292 88.238 39.129 88.006 46.573 z" style="stroke: none; stroke-width: 1; stroke-dasharray: none; stroke-linecap: butt; stroke-linejoin: miter; stroke-miterlimit: 10; fill: rgb(0,0,0); fill-rule: nonzero; opacity: 1;" transform=" matrix(1 0 0 1 0 0) " stroke-linecap="round" />
	<path d="M 44.999 51 c -3.309 0 -6 -2.691 -6 -6 s 2.691 -6 6 -6 s 6 2.691 6 6 S 48.308 51 44.999 51 z M 44.999 41 c -2.206 0 -4 1.794 -4 4 c 0 2.206 1.794 4 4 4 c 2.206 0 4 -1.794 4 -4 C 48.999 42.794 47.205 41 44.999 41 z" style="stroke: none; stroke-width: 1; stroke-dasharray: none; stroke-linecap: butt; stroke-linejoin: miter; stroke-miterlimit: 10; fill: rgb(0,0,0); fill-rule: nonzero; opacity: 1;" transform=" matrix(1 0 0 1 0 0) " stroke-linecap="round" />
</g>
</svg>