<svg xmlns="http://www.w3.org/2000/svg" xmlns:xlink="http://www.w3.org/1999/xlink" version="1.1" width="256" height="256" viewBox="0 0 256 256" xml:space="preserve">

<defs>
</defs>
<g style="stroke: none; stroke-width: 0; stroke-dasharray: none; stroke-linecap: butt; stroke-linejoin: miter; stroke-miterlimit: 10; fill: none; fill-rule: nonzero; opacity: 1;" transform="translate(1.4065934065934016 1.4065934065934016) scale(2.81 2.81)" >
	<path d="M 82.047 28.465 c -0.023 -0.011 -0.047 -0.021 -0.071 -0.031 c -2.745 -1.051 -5.806 1.337 -10.038 4.643 c -3.8 2.969 -8.476 6.622 -14.334 8.867 c -0.484 -2.024 -1.435 -3.879 -2.796 -5.449 c 7.792 -9.731 10.115 -19.56 6.713 -28.484 c -1.912 -4.777 -7.477 -7.766 -14.885 -7.997 c -6.84 -0.219 -15.439 2.181 -18.201 8.011 c -1.052 2.748 1.337 5.806 4.643 10.037 c 2.964 3.794 6.612 8.463 8.858 14.312 c -2.03 0.482 -3.89 1.435 -5.464 2.8 c -9.723 -7.775 -19.544 -10.094 -28.461 -6.694 c -4.777 1.912 -7.766 7.476 -7.997 14.884 c -0.213 6.837 2.181 15.439 8.011 18.201 c 2.746 1.057 5.806 -1.336 10.037 -4.643 c 3.792 -2.962 8.456 -6.607 14.298 -8.854 c 0.487 2.032 1.444 3.89 2.813 5.461 c -7.774 9.723 -10.092 19.543 -6.692 28.458 c 1.912 4.777 7.475 7.768 14.883 7.998 C 43.642 89.996 43.922 90 44.205 90 c 6.684 0 14.711 -2.431 17.361 -8.024 c 1.052 -2.748 -1.337 -5.806 -4.643 -10.037 c -2.966 -3.797 -6.616 -8.468 -8.861 -14.321 c 2.025 -0.487 3.878 -1.441 5.446 -2.807 c 9.731 7.79 19.557 10.111 28.482 6.711 c 4.776 -1.912 7.766 -7.477 7.996 -14.885 C 90.199 39.8 87.806 31.198 82.047 28.465 z" style="stroke: none; stroke-width: 1; stroke-dasharray: none; stroke-linecap: butt; stroke-linejoin: miter; stroke-miterlimit: 10; fill: rgb(70,113,198); fill-rule: nonzero; opacity: 1;" transform=" matrix(1 0 0 1 0 0) " stroke-linecap="round" />
	<circle cx="44.978" cy="44.998" r="12.998" style="stroke: none; stroke-width: 1; stroke-dasharray: none; stroke-linecap: butt; stroke-linejoin: miter; stroke-miterlimit: 10; fill: rgb(107,221,221); fill-rule: nonzero; opacity: 1;" transform="  matrix(1 0 0 1 0 0) "/>
	<circle cx="44.98" cy="45" r="5" style="stroke: none; stroke-width: 1; stroke-dasharray: none; stroke-linecap: butt; stroke-linejoin: miter; stroke-miterlimit: 10; fill: rgb(249,167,167); fill-rule: nonzero; opacity: 1;" transform="  matrix(1 0 0 1 0 0) "/>
</g>
</svg>