<svg xmlns="http://www.w3.org/2000/svg" xmlns:xlink="http://www.w3.org/1999/xlink" version="1.1" width="256" height="256" viewBox="0 0 256 256" xml:space="preserve">

<defs>
</defs>
<g style="stroke: none; stroke-width: 0; stroke-dasharray: none; stroke-linecap: butt; stroke-linejoin: miter; stroke-miterlimit: 10; fill: none; fill-rule: nonzero; opacity: 1;" transform="translate(1.4065934065934016 1.4065934065934016) scale(2.81 2.81)" >
	<path d="M 84.542 19.486 H 5.458 C 2.448 19.486 0 21.934 0 24.944 v 25.887 c 0 3.01 2.448 5.458 5.458 5.458 h 6.362 h 66.361 h 6.361 c 3.01 0 5.458 -2.448 5.458 -5.458 V 24.944 C 90 21.934 87.552 19.486 84.542 19.486 z M 12.82 54.289 V 41.863 h 64.361 v 5.213 H 19.239 c -0.552 0 -1 0.447 -1 1 s 0.448 1 1 1 h 57.942 v 5.213 H 12.82 z M 88 50.831 c 0 1.907 -1.551 3.458 -3.458 3.458 h -5.361 V 40.863 c 0 -0.552 -0.447 -1 -1 -1 H 11.82 c -0.552 0 -1 0.448 -1 1 v 13.426 H 5.458 C 3.551 54.289 2 52.738 2 50.831 V 24.944 c 0 -1.907 1.551 -3.458 3.458 -3.458 h 79.084 c 1.907 0 3.458 1.551 3.458 3.458 V 50.831 z" style="stroke: none; stroke-width: 1; stroke-dasharray: none; stroke-linecap: butt; stroke-linejoin: miter; stroke-miterlimit: 10; fill: rgb(0,0,0); fill-rule: nonzero; opacity: 1;" transform=" matrix(1 0 0 1 0 0) " stroke-linecap="round" />
	<path d="M 43.236 26.853 H 11.82 c -0.552 0 -1 0.448 -1 1 s 0.448 1 1 1 h 31.417 c 0.552 0 1 -0.448 1 -1 S 43.789 26.853 43.236 26.853 z" style="stroke: none; stroke-width: 1; stroke-dasharray: none; stroke-linecap: butt; stroke-linejoin: miter; stroke-miterlimit: 10; fill: rgb(0,0,0); fill-rule: nonzero; opacity: 1;" transform=" matrix(1 0 0 1 0 0) " stroke-linecap="round" />
	<path d="M 78.181 26.853 h -5.271 c -0.553 0 -1 0.448 -1 1 s 0.447 1 1 1 h 5.271 c 0.553 0 1 -0.448 1 -1 S 78.733 26.853 78.181 26.853 z" style="stroke: none; stroke-width: 1; stroke-dasharray: none; stroke-linecap: butt; stroke-linejoin: miter; stroke-miterlimit: 10; fill: rgb(0,0,0); fill-rule: nonzero; opacity: 1;" transform=" matrix(1 0 0 1 0 0) " stroke-linecap="round" />
	<path d="M 45 61.618 c -0.552 0 -1 0.447 -1 1 v 6.896 c 0 0.553 0.448 1 1 1 s 1 -0.447 1 -1 v -6.896 C 46 62.065 45.552 61.618 45 61.618 z" style="stroke: none; stroke-width: 1; stroke-dasharray: none; stroke-linecap: butt; stroke-linejoin: miter; stroke-miterlimit: 10; fill: rgb(0,0,0); fill-rule: nonzero; opacity: 1;" transform=" matrix(1 0 0 1 0 0) " stroke-linecap="round" />
	<path d="M 56.225 61.618 c -0.553 0 -1 0.447 -1 1 v 6.896 c 0 0.553 0.447 1 1 1 s 1 -0.447 1 -1 v -6.896 C 57.225 62.065 56.777 61.618 56.225 61.618 z" style="stroke: none; stroke-width: 1; stroke-dasharray: none; stroke-linecap: butt; stroke-linejoin: miter; stroke-miterlimit: 10; fill: rgb(0,0,0); fill-rule: nonzero; opacity: 1;" transform=" matrix(1 0 0 1 0 0) " stroke-linecap="round" />
	<path d="M 73.69 68.515 c -2.89 0 -5.241 -2.352 -5.241 -5.242 v -0.654 c 0 -0.553 -0.447 -1 -1 -1 s -1 0.447 -1 1 v 0.654 c 0 3.993 3.248 7.242 7.241 7.242 c 0.553 0 1 -0.447 1 -1 S 74.243 68.515 73.69 68.515 z" style="stroke: none; stroke-width: 1; stroke-dasharray: none; stroke-linecap: butt; stroke-linejoin: miter; stroke-miterlimit: 10; fill: rgb(0,0,0); fill-rule: nonzero; opacity: 1;" transform=" matrix(1 0 0 1 0 0) " stroke-linecap="round" />
	<path d="M 33.775 61.618 c -0.552 0 -1 0.447 -1 1 v 6.896 c 0 0.553 0.448 1 1 1 s 1 -0.447 1 -1 v -6.896 C 34.775 62.065 34.328 61.618 33.775 61.618 z" style="stroke: none; stroke-width: 1; stroke-dasharray: none; stroke-linecap: butt; stroke-linejoin: miter; stroke-miterlimit: 10; fill: rgb(0,0,0); fill-rule: nonzero; opacity: 1;" transform=" matrix(1 0 0 1 0 0) " stroke-linecap="round" />
	<path d="M 22.551 61.618 c -0.552 0 -1 0.447 -1 1 v 0.654 c 0 2.891 -2.352 5.242 -5.242 5.242 c -0.552 0 -1 0.447 -1 1 s 0.448 1 1 1 c 3.993 0 7.242 -3.249 7.242 -7.242 v -0.654 C 23.551 62.065 23.104 61.618 22.551 61.618 z" style="stroke: none; stroke-width: 1; stroke-dasharray: none; stroke-linecap: butt; stroke-linejoin: miter; stroke-miterlimit: 10; fill: rgb(0,0,0); fill-rule: nonzero; opacity: 1;" transform=" matrix(1 0 0 1 0 0) " stroke-linecap="round" />
</g>
</svg>