<svg xmlns="http://www.w3.org/2000/svg" xmlns:xlink="http://www.w3.org/1999/xlink" version="1.1" width="256" height="256" viewBox="0 0 256 256" xml:space="preserve">

<defs>
</defs>
<g style="stroke: none; stroke-width: 0; stroke-dasharray: none; stroke-linecap: butt; stroke-linejoin: miter; stroke-miterlimit: 10; fill: none; fill-rule: nonzero; opacity: 1;" transform="translate(1.4065934065934016 1.4065934065934016) scale(2.81 2.81)" >
	<path d="M 84.217 59.321 H 72.292 c -18.958 -3.796 -37.122 -3.644 -54.584 0 H 5.783 C 2.589 59.321 0 56.732 0 53.538 V 22.213 c 0 -3.194 2.589 -5.783 5.783 -5.783 h 78.433 c 3.194 0 5.783 2.589 5.783 5.783 v 31.325 C 90 56.732 87.411 59.321 84.217 59.321 z" style="stroke: none; stroke-width: 1; stroke-dasharray: none; stroke-linecap: butt; stroke-linejoin: miter; stroke-miterlimit: 10; fill: rgb(56,228,228); fill-rule: nonzero; opacity: 1;" transform=" matrix(1 0 0 1 0 0) " stroke-linecap="round" />
	<path d="M 69.677 49.238 H 20.323 c -1.444 0 -2.615 1.171 -2.615 2.615 v 7.468 h 54.584 v -7.468 C 72.292 50.409 71.121 49.238 69.677 49.238 z" style="stroke: none; stroke-width: 1; stroke-dasharray: none; stroke-linecap: butt; stroke-linejoin: miter; stroke-miterlimit: 10; fill: rgb(51,204,204); fill-rule: nonzero; opacity: 1;" transform=" matrix(1 0 0 1 0 0) " stroke-linecap="round" />
	<path d="M 68.954 55.28 H 21.046 c -0.552 0 -1 -0.447 -1 -1 s 0.448 -1 1 -1 h 47.908 c 0.553 0 1 0.447 1 1 S 69.507 55.28 68.954 55.28 z" style="stroke: none; stroke-width: 1; stroke-dasharray: none; stroke-linecap: butt; stroke-linejoin: miter; stroke-miterlimit: 10; fill: rgb(56,228,228); fill-rule: nonzero; opacity: 1;" transform=" matrix(1 0 0 1 0 0) " stroke-linecap="round" />
	<path d="M 72.292 24.32 H 45 c -0.552 0 -1 -0.448 -1 -1 s 0.448 -1 1 -1 h 27.292 c 0.553 0 1 0.448 1 1 S 72.845 24.32 72.292 24.32 z" style="stroke: none; stroke-width: 1; stroke-dasharray: none; stroke-linecap: butt; stroke-linejoin: miter; stroke-miterlimit: 10; fill: rgb(249,249,249); fill-rule: nonzero; opacity: 1;" transform=" matrix(1 0 0 1 0 0) " stroke-linecap="round" />
	<path d="M 84.684 24.32 h -5.497 c -0.553 0 -1 -0.448 -1 -1 s 0.447 -1 1 -1 h 5.497 c 0.553 0 1 0.448 1 1 S 85.236 24.32 84.684 24.32 z" style="stroke: none; stroke-width: 1; stroke-dasharray: none; stroke-linecap: butt; stroke-linejoin: miter; stroke-miterlimit: 10; fill: rgb(249,249,249); fill-rule: nonzero; opacity: 1;" transform=" matrix(1 0 0 1 0 0) " stroke-linecap="round" />
	<path d="M 44.84 74.57 c -0.552 0 -1 -0.447 -1 -1 v -9.317 c 0 -0.553 0.448 -1 1 -1 s 1 0.447 1 1 v 9.317 C 45.84 74.123 45.392 74.57 44.84 74.57 z" style="stroke: none; stroke-width: 1; stroke-dasharray: none; stroke-linecap: butt; stroke-linejoin: miter; stroke-miterlimit: 10; fill: rgb(51,204,204); fill-rule: nonzero; opacity: 1;" transform=" matrix(1 0 0 1 0 0) " stroke-linecap="round" />
	<path d="M 55.067 74.57 c -0.553 0 -1 -0.447 -1 -1 v -9.317 c 0 -0.553 0.447 -1 1 -1 s 1 0.447 1 1 v 9.317 C 56.067 74.123 55.62 74.57 55.067 74.57 z" style="stroke: none; stroke-width: 1; stroke-dasharray: none; stroke-linecap: butt; stroke-linejoin: miter; stroke-miterlimit: 10; fill: rgb(51,204,204); fill-rule: nonzero; opacity: 1;" transform=" matrix(1 0 0 1 0 0) " stroke-linecap="round" />
	<path d="M 34.613 74.57 c -0.552 0 -1 -0.447 -1 -1 v -9.317 c 0 -0.553 0.448 -1 1 -1 s 1 0.447 1 1 v 9.317 C 35.613 74.123 35.165 74.57 34.613 74.57 z" style="stroke: none; stroke-width: 1; stroke-dasharray: none; stroke-linecap: butt; stroke-linejoin: miter; stroke-miterlimit: 10; fill: rgb(51,204,204); fill-rule: nonzero; opacity: 1;" transform=" matrix(1 0 0 1 0 0) " stroke-linecap="round" />
	<path d="M 69.705 74.57 c -0.135 0 -0.272 -0.027 -0.404 -0.086 c -3.231 -1.431 -4.916 -4.868 -5.007 -10.215 c -0.009 -0.552 0.431 -1.007 0.983 -1.017 c 0.55 0.004 1.007 0.431 1.017 0.983 c 0.076 4.499 1.36 7.332 3.817 8.42 c 0.505 0.224 0.732 0.814 0.509 1.319 C 70.455 74.349 70.089 74.57 69.705 74.57 z" style="stroke: none; stroke-width: 1; stroke-dasharray: none; stroke-linecap: butt; stroke-linejoin: miter; stroke-miterlimit: 10; fill: rgb(51,204,204); fill-rule: nonzero; opacity: 1;" transform=" matrix(1 0 0 1 0 0) " stroke-linecap="round" />
	<path d="M 20.295 74.57 c -0.383 0 -0.75 -0.222 -0.915 -0.595 c -0.224 -0.505 0.004 -1.096 0.509 -1.319 c 2.457 -1.089 3.741 -3.921 3.816 -8.42 c 0.01 -0.553 0.487 -0.973 1.017 -0.983 c 0.552 0.01 0.992 0.465 0.983 1.017 c -0.09 5.347 -1.774 8.783 -5.006 10.215 C 20.568 74.543 20.43 74.57 20.295 74.57 z" style="stroke: none; stroke-width: 1; stroke-dasharray: none; stroke-linecap: butt; stroke-linejoin: miter; stroke-miterlimit: 10; fill: rgb(51,204,204); fill-rule: nonzero; opacity: 1;" transform=" matrix(1 0 0 1 0 0) " stroke-linecap="round" />
	<circle cx="6.555999999999999" cy="23.246" r="2.296" style="stroke: none; stroke-width: 1; stroke-dasharray: none; stroke-linecap: butt; stroke-linejoin: miter; stroke-miterlimit: 10; fill: rgb(249,249,249); fill-rule: nonzero; opacity: 1;" transform="  matrix(1 0 0 1 0 0) "/>
</g>
</svg>